<?xml version="1.0" encoding="UTF-8"?>
<svg version="1.1" xmlns="http://www.w3.org/2000/svg" width="1792" height="1024">
<path d="M0 0 C591.36 0 1182.72 0 1792 0 C1792 337.92 1792 675.84 1792 1024 C1200.64 1024 609.28 1024 0 1024 C0 686.08 0 348.16 0 0 Z " fill="#000000" transform="translate(0,0)"/>
<path d="M0 0 C2.88033682 0.03182693 5.76012783 0.04105189 8.640625 0.046875 C10.47396511 0.05602173 12.30729963 0.06638993 14.140625 0.078125 C15.43093628 0.08449982 15.43093628 0.08449982 16.74731445 0.09100342 C22.71077879 0.16390379 22.71077879 0.16390379 23.828125 1.28125 C26.01437348 1.48281901 28.20227567 1.66643759 30.390625 1.84375 C47.03578499 3.62606015 63.47264021 10.2264682 78.04296875 18.29443359 C79.82403116 19.27898697 81.62071305 20.22860159 83.421875 21.17578125 C96.25762003 28.06303899 107.24794946 37.33624794 117.828125 47.28125 C118.52808594 47.90515625 119.22804688 48.5290625 119.94921875 49.171875 C129.10224569 57.70350378 136.38285088 68.51172639 143.2578125 78.921875 C146.29372878 83.82008689 146.29372878 83.82008689 150.7578125 87.1953125 C153.7715272 87.73302923 155.94428379 87.2425304 158.828125 86.28125 C160.00808266 83.26150426 159.9631646 80.24127606 159.98583984 77.02880859 C160.00123306 75.45599625 160.00123306 75.45599625 160.01693726 73.85140991 C160.02788925 72.15765732 160.02788925 72.15765732 160.0390625 70.4296875 C160.06714189 68.02733706 160.09580642 65.62499341 160.125 63.22265625 C160.16616098 59.44417591 160.20305805 55.66582068 160.22949219 51.88720703 C160.25724808 48.23443569 160.30313068 44.58223567 160.3515625 40.9296875 C160.35481537 39.81266449 160.35806824 38.69564148 160.36141968 37.54476929 C160.50113905 28.54200049 161.41363384 20.05210178 167.828125 13.28125 C168.32183594 12.64316406 168.81554687 12.00507813 169.32421875 11.34765625 C173.44166319 6.16519155 177.26818237 2.74618101 183.828125 1.28125 C194.60488494 0.31267757 205.3967242 0.3633167 214.140625 7.46875 C220.77247925 13.81925286 224.85202768 21.13564873 225.08260059 30.4269371 C225.09488978 32.52366445 225.09615376 34.62047358 225.08882141 36.71722412 C225.09264696 37.87502388 225.09647251 39.03282364 225.10041398 40.22570825 C225.1089376 43.43094053 225.10851395 46.63602618 225.10423338 49.84126234 C225.10176482 53.30151542 225.11078205 56.76174164 225.11827087 60.22198486 C225.13101726 66.99839427 225.13281156 73.77476405 225.13047061 80.55118343 C225.12868687 86.06106617 225.13043831 91.57093688 225.13469505 97.08081818 C225.13529024 97.8653206 225.13588543 98.64982302 225.13649866 99.45809825 C225.13771043 101.05189973 225.13892456 102.64570122 225.14014103 104.2395027 C225.15101678 119.18566606 225.14885418 134.13180686 225.14275619 149.07797149 C225.13758959 162.7410998 225.14883561 176.40415676 225.16785441 190.06727096 C225.18724378 204.10452999 225.19548671 218.14175529 225.19173115 232.1790278 C225.18982045 240.05660871 225.19229375 247.93412894 225.20644569 255.81169891 C225.21837465 262.51967686 225.21974761 269.22755678 225.20765553 275.93553612 C225.20177681 279.3555304 225.20063917 282.77534553 225.21265793 286.19532776 C225.22312008 289.90949776 225.21502811 293.62318842 225.2023468 297.33734131 C225.20972109 298.40914949 225.21709537 299.48095767 225.22469312 300.58524489 C225.14444852 311.78139156 222.36774289 320.8392068 214.828125 329.28125 C206.54507583 336.36428144 198.13654151 337.76912459 187.421875 337.58984375 C182.66087031 337.18101835 179.63196692 336.10672016 175.828125 333.28125 C174.81685547 332.58708984 174.81685547 332.58708984 173.78515625 331.87890625 C166.64163 326.39728854 162.19999071 318.36477659 161.02223206 309.44100952 C160.61454843 304.90486017 160.6704796 300.35191428 160.65234375 295.80078125 C160.62916643 293.56314142 160.60504998 291.32551115 160.58007812 289.08789062 C160.54484669 285.57878999 160.51553492 282.07004782 160.50219727 278.56079102 C160.48676719 275.16118959 160.44661806 271.7626131 160.40234375 268.36328125 C160.40520638 266.78665459 160.40520638 266.78665459 160.40812683 265.17817688 C160.39356699 259.55603811 160.39356699 259.55603811 158.00708008 254.6237793 C154.7278614 252.60333969 152.59857389 252.68591596 148.828125 253.28125 C144.43846548 257.09197279 141.1467135 261.70119814 137.703125 266.34375 C126.04550659 281.77736216 112.43973642 297.05701387 95.828125 307.28125 C94.84465088 307.88767334 94.84465088 307.88767334 93.84130859 308.50634766 C56.40737627 331.38492648 12.33569734 343.18096823 -31.23632812 332.91381836 C-34.56514088 332.09384185 -37.86695161 331.19330116 -41.171875 330.28125 C-42.27273438 329.98347656 -43.37359375 329.68570312 -44.5078125 329.37890625 C-61.72240391 324.42705465 -81.38579541 315.96112298 -95.171875 304.28125 C-95.171875 303.62125 -95.171875 302.96125 -95.171875 302.28125 C-95.74035156 302.01957031 -96.30882812 301.75789063 -96.89453125 301.48828125 C-122.11352332 288.12178288 -140.10798707 257.6297634 -150.43115234 232.10986328 C-151.11594925 230.41931324 -151.82452678 228.73844851 -152.53515625 227.05859375 C-155.11133335 220.74975139 -157.09432247 214.35421171 -158.859375 207.78125 C-159.16319092 206.66109497 -159.16319092 206.66109497 -159.47314453 205.51831055 C-162.51826609 193.72005181 -163.50914261 182.19680685 -163.421875 170.03125 C-163.41877319 169.35115875 -163.41567139 168.6710675 -163.41247559 167.97036743 C-163.31665084 150.02349774 -162.12222284 131.06379723 -155.171875 114.28125 C-154.69241279 112.49512154 -154.23450006 110.703087 -153.796875 108.90625 C-152.71735725 104.84314047 -151.42488805 101.60745868 -149.1953125 98.0703125 C-147.99735363 95.97617065 -147.19925901 93.85497618 -146.359375 91.59375 C-143.99689256 85.48517986 -140.92150247 79.65633175 -137.171875 74.28125 C-136.511875 74.28125 -135.851875 74.28125 -135.171875 74.28125 C-135.06875 73.724375 -134.965625 73.1675 -134.859375 72.59375 C-134.03009092 69.8043399 -132.82888444 67.6673436 -131.171875 65.28125 C-130.511875 65.28125 -129.851875 65.28125 -129.171875 65.28125 C-128.511875 63.96125 -127.851875 62.64125 -127.171875 61.28125 C-126.511875 61.28125 -125.851875 61.28125 -125.171875 61.28125 C-124.945 60.394375 -124.718125 59.5075 -124.484375 58.59375 C-122.94763577 54.71531289 -121.19335277 53.15021116 -118.171875 50.28125 C-117.36182007 49.49754028 -117.36182007 49.49754028 -116.53540039 48.69799805 C-108.82755126 41.25523083 -101.10549966 34.24538815 -92.171875 28.28125 C-91.15351562 27.56710937 -90.13515625 26.85296875 -89.0859375 26.1171875 C-76.16950641 17.23965825 -61.83809601 11.25201497 -46.984375 6.40625 C-46.15550781 6.13216309 -45.32664062 5.85807617 -44.47265625 5.57568359 C-29.70562421 0.98662329 -15.37747515 -0.17181536 0 0 Z " fill="#39F464" transform="translate(708.171875,346.71875)"/>
<path d="M0 0 C1.85625 0.0309375 1.85625 0.0309375 3.75 0.0625 C8.77154733 1.51102327 12.16762966 4.53261731 16 8 C16.55945312 8.49242187 17.11890625 8.98484375 17.6953125 9.4921875 C24.42155883 16.28886573 26.89902236 26.78929368 29.96714783 35.63162231 C33.88088496 46.88914245 38.15499999 58.00375793 42.4375 69.125 C43.23848068 71.21020986 44.03925847 73.29549767 44.83984375 75.38085938 C46.84946672 80.61382754 48.86174187 85.84577042 50.87518311 91.07727051 C52.23573525 94.61253558 53.59545257 98.14812131 54.95510864 101.68373108 C57.07493544 107.19604407 59.19521445 112.70818283 61.31640625 118.2199707 C66.20089124 130.91334891 71.07256711 143.61161575 75.9375 156.3125 C76.31529602 157.29879395 76.69309204 158.28508789 77.08233643 159.30126953 C82.53068301 173.52755632 87.95798393 187.76175866 93.375 202 C98.4866768 215.43563842 103.63030385 228.85811256 108.83422852 242.25830078 C111.14014458 248.19618336 113.43906236 254.13643006 115.71484375 260.0859375 C116.58067641 262.34897852 117.44656031 264.61199993 118.3125 266.875 C118.71895752 267.9374292 119.12541504 268.9998584 119.54418945 270.09448242 C122.22147174 277.06090824 124.99033832 283.98229985 127.93286133 290.84130859 C131.50957397 299.29053209 132.71046897 308.90071795 130.19921875 317.85546875 C126.80590192 325.37673801 120.80663807 331.56516451 113.25 335 C104.83766116 337.61305114 94.61865661 336.93772539 86.86328125 332.8828125 C75.90324988 326.29562896 70.936754 316.37376831 66 305 C64.82518253 302.42066685 63.60935783 299.86379245 62.375 297.3125 C61.82585937 296.15363281 61.27671875 294.99476563 60.7109375 293.80078125 C58.86583715 290.78037725 58.19988395 290.21730502 55 289 C52.55559483 288.69595302 52.55559483 288.69595302 49.88980103 288.73257446 C48.85803238 288.72404449 47.82626373 288.71551453 46.76322937 288.70672607 C45.07372917 288.70808563 45.07372917 288.70808563 43.35009766 288.70947266 C42.15946213 288.70275543 40.9688266 288.69603821 39.74211121 288.68911743 C36.47961278 288.67337489 33.21726715 288.66676242 29.95473528 288.66548586 C27.91505756 288.66406319 25.87540643 288.65979142 23.83573532 288.65449142 C16.71599385 288.63599378 9.59632721 288.62782045 2.4765625 288.62939453 C-4.15366814 288.6305958 -10.78357318 288.60949595 -17.41372144 288.5779072 C-23.11152879 288.55173068 -28.80922989 288.54102781 -34.50709689 288.54230535 C-37.90777514 288.5428146 -41.30816399 288.53715268 -44.7087822 288.51594925 C-48.50323314 288.49637189 -52.29684437 288.5020959 -56.09130859 288.51416016 C-57.2135936 288.50292114 -58.3358786 288.49168213 -59.49217224 288.48010254 C-65.61727079 288.529633 -69.38697842 288.80896079 -74 293 C-75.63930776 295.66676086 -75.63930776 295.66676086 -76.67578125 298.7265625 C-77.11212891 299.84160156 -77.54847656 300.95664062 -77.99804688 302.10546875 C-78.86523321 304.42741493 -79.72987297 306.75031398 -80.59179688 309.07421875 C-84.8345639 319.89544884 -91.27369971 328.89329986 -102 334 C-110.16936434 337.36385591 -120.69977736 337.36015705 -128.94140625 334.09375 C-136.60254011 330.02331835 -141.10021695 324.09939403 -144 316 C-147.34047704 303.51716473 -141.95541325 291.91332483 -137.0234375 280.69140625 C-134.79379797 275.60201168 -132.96127548 270.43313597 -131.140625 265.18359375 C-129.68249658 261.11381752 -128.00094106 257.15807675 -126.3125 253.1796875 C-123.43695231 246.2133309 -120.89119368 239.11479021 -118.27783203 232.046875 C-115.00016654 223.192454 -111.57472072 214.41103771 -108.04052734 205.65576172 C-105.3529284 198.96311336 -102.83249595 192.21803831 -100.36352539 185.44213867 C-98.96363487 181.60362516 -97.54473364 177.78328833 -96 174 C-94.03850583 169.18542341 -92.2376901 164.31410643 -90.4375 159.4375 C-90.14423828 158.64537109 -89.85097656 157.85324219 -89.54882812 157.03710938 C-87.83359221 152.37151281 -86.21267413 147.68780483 -84.6940918 142.9543457 C-83.70931665 140.18152648 -82.31451217 137.62902433 -81 135 C-80.30092586 132.26427415 -80.30092586 132.26427415 -80 130 C-79.34 130 -78.68 130 -78 130 C-77.89171875 128.96875 -77.7834375 127.9375 -77.671875 126.875 C-77.01094196 123.06310713 -75.98371411 120.43168154 -74.25 117 C-71.73499508 111.75493036 -69.73680668 106.53146119 -67.95922852 100.99658203 C-62.19170868 83.09987535 -55.10574126 65.58863655 -48.3125 48.0625 C-46.64729365 43.75516625 -45.08632036 39.42178356 -43.5625 35.0625 C-36.39425763 14.86931251 -36.39425763 14.86931251 -32 10 C-31.34 10 -30.68 10 -30 10 C-29.67 9.01 -29.34 8.02 -29 7 C-20.22464732 -0.49561375 -11.17475331 -0.40635467 0 0 Z " fill="#39F465" transform="translate(1093,348)"/>
<path d="M0 0 C1.10699753 -0.00855011 1.10699753 -0.00855011 2.23635864 -0.01727295 C3.80143816 -0.02670871 5.36653742 -0.03325127 6.93164062 -0.03710938 C9.27772055 -0.04670087 11.62287979 -0.07768743 13.96875 -0.109375 C33.18010618 -0.24642809 50.31625896 4.56014409 66.4453125 15.203125 C67.30640625 15.74453125 68.1675 16.2859375 69.0546875 16.84375 C73.77456782 19.86330076 73.77456782 19.86330076 75.4453125 21.203125 C75.4453125 21.863125 75.4453125 22.523125 75.4453125 23.203125 C75.99960937 23.43644531 76.55390625 23.66976563 77.125 23.91015625 C94.31638417 33.48986696 104.39688174 56.39644075 109.6550293 74.3425293 C115.46266589 94.9495158 115.93081919 117.00230459 108.4453125 137.203125 C108.08518066 138.20013428 108.08518066 138.20013428 107.71777344 139.21728516 C106.37383307 142.91357829 104.9533979 146.57088527 103.4453125 150.203125 C102.7853125 150.203125 102.1253125 150.203125 101.4453125 150.203125 C101.35378906 151.08226562 101.26226563 151.96140625 101.16796875 152.8671875 C99.35952548 161.21535264 92.01281007 168.00318974 85.9140625 173.64453125 C84.21670592 175.08878253 84.21670592 175.08878253 84.4453125 177.203125 C83.8265625 177.285625 83.2078125 177.368125 82.5703125 177.453125 C79.74891076 178.44891385 79.72603292 179.56634766 78.4453125 182.203125 C74.00086806 186.203125 74.00086806 186.203125 71.4453125 186.203125 C71.1153125 187.193125 70.7853125 188.183125 70.4453125 189.203125 C66.32544452 192.19881195 61.86571129 194.6782406 57.4453125 197.203125 C56.48882813 197.75742187 55.53234375 198.31171875 54.546875 198.8828125 C33.6589048 210.17518854 7.59942674 212.51160776 -15.1484375 205.9453125 C-43.67731265 197.08812323 -66.37384974 178.37933852 -80.703125 152.16796875 C-93.49316227 126.01146093 -95.29024532 96.41593694 -86.1640625 68.91796875 C-76.8076668 42.07692576 -58.90138405 22.61011806 -34.03125 9.3203125 C-26.77882744 5.82580381 -19.31020227 3.33016491 -11.5546875 1.203125 C-10.99322021 1.026604 -10.43175293 0.85008301 -9.85327148 0.66821289 C-6.57947065 0.00580284 -3.32677029 0.02016833 0 0 Z " fill="#000100" transform="translate(699.5546875,410.796875)"/>
<path d="M0 0 C3.0686007 1.53430035 3.60546264 4.44761274 4.8125 7.5 C5.10455322 8.22268066 5.39660645 8.94536133 5.69750977 9.68994141 C9.28988421 18.62489011 12.78252048 27.60088814 16.29656982 36.56689453 C19.57257514 44.92473166 22.89165867 53.25194968 26.4375 61.5 C29.20295196 67.93401015 31.64643926 74.42673559 33.91040039 81.0534668 C35.72713769 86.34718308 37.82579352 91.47323147 40.1171875 96.58203125 C41 99 41 99 41 103 C13.94 103 -13.12 103 -41 103 C-38.98871857 96.96615572 -36.902697 91.11689321 -34.5 85.25 C-31.13617049 76.93773362 -27.91690191 68.57662542 -24.75 60.1875 C-23.57267294 57.07667144 -22.39499365 53.96597675 -21.21710205 50.85536194 C-20.97659119 50.22021164 -20.73608032 49.58506134 -20.48828125 48.93066406 C-20.24480957 48.28778442 -20.00133789 47.64490479 -19.75048828 46.98254395 C-19.24331103 45.64274797 -18.73648416 44.30281931 -18.22998047 42.96276855 C-16.66576843 38.8250413 -15.09391115 34.69035508 -13.5123291 30.55923462 C-13.01483666 29.25617485 -12.51984604 27.95215637 -12.02770996 26.64706421 C-8.55352662 17.43951515 -4.54282426 8.71764972 0 0 Z " fill="#000301" transform="translate(1086,471)"/>
<path d="M0 0 C7.62185007 5.09922005 12.64892005 12.16066586 15 21 C15.29564938 24.81190189 15.27406126 28.61417863 15.26069641 32.43597412 C15.26643473 34.17267376 15.26643473 34.17267376 15.27228898 35.94445825 C15.2808126 39.14969053 15.28038895 42.35477618 15.27610838 45.56001234 C15.27363982 49.02026542 15.28265705 52.48049164 15.29014587 55.94073486 C15.30289226 62.71714427 15.30468656 69.49351405 15.30234561 76.26993343 C15.30056187 81.77981617 15.30231331 87.28968688 15.30657005 92.79956818 C15.30746284 93.97632181 15.30746284 93.97632181 15.30837366 95.17684825 C15.30958543 96.77064973 15.31079956 98.36445122 15.31201603 99.9582527 C15.32289178 114.90441606 15.32072918 129.85055686 15.31463119 144.79672149 C15.30946459 158.4598498 15.32071061 172.12290676 15.33972941 185.78602096 C15.35911878 199.82327999 15.36736171 213.86050529 15.36360615 227.8977778 C15.36169545 235.77535871 15.36416875 243.65287894 15.37832069 251.53044891 C15.39024965 258.23842686 15.39162261 264.94630678 15.37953053 271.65428612 C15.37365181 275.0742804 15.37251417 278.49409553 15.38453293 281.91407776 C15.39499508 285.62824776 15.38690311 289.34193842 15.3742218 293.05609131 C15.38159609 294.12789949 15.38897037 295.19970767 15.39656812 296.30399489 C15.34852762 303.00685766 14.29284344 308.69792817 12 315 C11.67 315 11.34 315 11 315 C10.957279 313.33388095 10.95936168 311.66617115 11 310 C11.33 309.67 11.66 309.34 12 309 C12.09781822 307.45648792 12.12555511 305.90848976 12.12584114 304.36188126 C12.12975276 302.84824285 12.12975276 302.84824285 12.13374341 301.30402589 C12.13151268 300.18197432 12.12928196 299.05992276 12.12698364 297.90386963 C12.12854363 296.72231285 12.13010362 295.54075607 12.13171089 294.32339454 C12.13502422 291.0288306 12.13381164 287.73432317 12.13072467 284.43976259 C12.12847237 280.89227377 12.1319494 277.34479007 12.13470459 273.79730225 C12.13916366 266.84074734 12.13818506 259.88420319 12.13529195 252.92764786 C12.13303773 247.2741088 12.13272548 241.62057277 12.13381577 235.96703339 C12.13404561 234.7621199 12.13404561 234.7621199 12.13428011 233.53286473 C12.13459982 231.90120492 12.13492403 230.26954511 12.1352527 228.6378853 C12.13810808 213.31706242 12.13481994 197.9962455 12.12945233 182.67542359 C12.12498765 169.52482367 12.12575735 156.37423258 12.13037109 143.22363281 C12.1357217 127.96553011 12.13782979 112.70743265 12.13475883 97.44932914 C12.13444027 95.82229598 12.1341259 94.19526283 12.13381577 92.56822968 C12.13366149 91.76763625 12.13350721 90.96704282 12.13334826 90.14218898 C12.13248432 84.49642559 12.13394344 78.85066552 12.13629532 73.20490265 C12.13909906 66.32284894 12.13834304 59.44080664 12.13301457 52.55875424 C12.13038481 49.0463093 12.12936022 45.53388339 12.13266373 42.0214386 C12.13618899 38.2156366 12.13198198 34.40986581 12.12698364 30.60406494 C12.12921436 29.49093626 12.13144509 28.37780758 12.13374341 27.23094773 C12.13113566 26.21142447 12.12852791 25.19190121 12.12584114 24.14148331 C12.12567879 23.26297282 12.12551644 22.38446232 12.12534916 21.4793303 C11.99502304 18.90155871 11.56803833 16.51467796 11 14 C10.34 14 9.68 14 9 14 C7.81640625 12.3203125 7.81640625 12.3203125 6.5625 10.125 C4.82669206 7.08869645 4.01345998 6.00897332 1 4 C1 3.34 1 2.68 1 2 C0.12021484 1.78730469 0.12021484 1.78730469 -0.77734375 1.5703125 C-2.72377074 1.07087781 -4.64629396 0.4801177 -6.5625 -0.125 C-10.97161539 -1.23550481 -14.92686185 -0.89644828 -19.40625 -0.32421875 C-22 0 -22 0 -25.5625 0 C-33.33447248 2.26093745 -39.14827954 9.31150493 -43.0625 16.17578125 C-44.05654383 18.11002488 -45.03604981 20.05058288 -46 22 C-46.66 21.34 -47.32 20.68 -48 20 C-44.66474055 10.77898858 -38.70747628 2.84318177 -29.83203125 -1.578125 C-21.2396764 -5.17487266 -8.27570232 -4.18985288 0 0 Z " fill="#61ED82" transform="translate(918,351)"/>
<path d="M0 0 C0.66 0 1.32 0 2 0 C1.67 1.65 1.34 3.3 1 5 C-0.32 5.33 -1.64 5.66 -3 6 C-3.0928125 7.2375 -3.0928125 7.2375 -3.1875 8.5 C-3.95194235 11.79298243 -4.72841563 13.33209757 -6.5625 16.0625 C-8.72964969 19.297789 -9.22464654 21.06868552 -9 25 C-9.44730469 25.4125 -9.89460937 25.825 -10.35546875 26.25 C-12.60872727 28.64776678 -13.21322588 31.06310369 -14.1875 34.1875 C-14.53167969 35.27417969 -14.87585938 36.36085938 -15.23046875 37.48046875 C-15.48441406 38.31191406 -15.73835937 39.14335937 -16 40 C-16.66 40 -17.32 40 -18 40 C-17.79375 40.7425 -17.5875 41.485 -17.375 42.25 C-17 45 -17 45 -17.9140625 46.765625 C-19.31759109 49.6534608 -19.59171819 52.32123444 -20 55.5 C-20.77809088 61.55799326 -20.77809088 61.55799326 -21.95703125 63.90625 C-27.10057063 74.23185715 -26.23940684 88.29093788 -25.875 99.4375 C-25.84108154 100.59701172 -25.80716309 101.75652344 -25.7722168 102.95117188 C-25.46764787 109.66991436 -24.5039975 115.80649096 -22.73095703 122.29174805 C-21.75689075 125.90073846 -21.13094264 129.50324563 -20.5 133.1875 C-18.93217691 141.90587456 -16.2597173 149.62065753 -12.76953125 157.73828125 C-12 160 -12 160 -12 164 C-11.34 164 -10.68 164 -10 164 C-9.71125 165.03125 -9.4225 166.0625 -9.125 167.125 C-8.17691202 170.45007997 -7.11743406 173.72751453 -6 177 C-5.34 177 -4.68 177 -4 177 C-3.608125 177.825 -3.21625 178.65 -2.8125 179.5 C-1.0487185 182.9059229 0.90845931 186.06420356 3.01171875 189.265625 C4 191 4 191 4 193 C4.66 193 5.32 193 6 193 C5.67 193.99 5.34 194.98 5 196 C-16.42191822 168.59589717 -28.49872913 132.42412755 -28.25 97.75 C-28.24689819 97.06990875 -28.24379639 96.3898175 -28.24060059 95.68911743 C-28.14477584 77.74224774 -26.95034784 58.78254723 -20 42 C-19.52053779 40.21387154 -19.06262506 38.421837 -18.625 36.625 C-17.54548225 32.56189047 -16.25301305 29.32620868 -14.0234375 25.7890625 C-12.82547863 23.69492065 -12.02738401 21.57372618 -11.1875 19.3125 C-8.82501756 13.20392986 -5.74962747 7.37508175 -2 2 C-1.34 2 -0.68 2 0 2 C0 1.34 0 0.68 0 0 Z " fill="#4ED86B" transform="translate(573,419)"/>
<path d="M0 0 C4.0959053 0.68265088 7.7487044 1.96310765 11.625 3.4375 C17.70536587 5.65670526 23.59466161 7.12416802 30 8 C30 8.66 30 9.32 30 10 C31.299375 9.773125 32.59875 9.54625 33.9375 9.3125 C38.40977852 8.79997829 41.53356217 9.51759062 45.6640625 11.2109375 C53.16719746 13.74544128 61.24654486 13.18350615 69.0625 13.1875 C70.29677734 13.19974609 71.53105469 13.21199219 72.80273438 13.22460938 C82.66694809 13.2400948 93.17460244 13.13611683 102.4375 9.375 C106.40632104 7.84317434 108.82315392 7.73894712 113 8 C113 7.34 113 6.68 113 6 C117.33692137 4.41332145 121.42513268 3.58225584 126 3 C127.66934283 2.68033861 129.3373217 2.35268934 131 2 C127.30173207 5.31467099 123.15206445 6.50206782 118.5 7.9375 C117.67064941 8.19619873 116.84129883 8.45489746 115.98681641 8.72143555 C85.5135412 17.92398753 54.66998674 18.53830947 24 10 C22.84113281 9.67902344 21.68226563 9.35804688 20.48828125 9.02734375 C13.34793515 6.94016566 6.68114916 4.26693466 0 1 C0 0.67 0 0.34 0 0 Z " fill="#58D978" transform="translate(643,667)"/>
<path d="M0 0 C0.33 0 0.66 0 1 0 C1.10957031 1.01578125 1.21914063 2.0315625 1.33203125 3.078125 C2.17264054 10.50668085 3.25207157 17.63357267 5.21484375 24.86328125 C6.15357177 28.61352303 6.82781015 32.38223678 7.5 36.1875 C9.07357901 44.90537233 11.73974091 52.6193974 15.23046875 60.73828125 C16 63 16 63 16 67 C16.66 67 17.32 67 18 67 C18.28875 68.03125 18.5775 69.0625 18.875 70.125 C19.82308798 73.45007997 20.88256594 76.72751453 22 80 C22.66 80 23.32 80 24 80 C24.391875 80.825 24.78375 81.65 25.1875 82.5 C26.9512815 85.9059229 28.90845931 89.06420356 31.01171875 92.265625 C32 94 32 94 32 96 C32.66 96 33.32 96 34 96 C33.505 97.485 33.505 97.485 33 99 C11.41681115 71.38959086 -0.80757066 34.94986369 0 0 Z " fill="#5ADD77" transform="translate(545,516)"/>
<path d="M0 0 C7.40620848 4.9549501 13.00550547 12.22422407 15 21 C14.67 22.32 14.34 23.64 14 25 C13.01 21.37 12.02 17.74 11 14 C10.34 14 9.68 14 9 14 C7.81640625 12.3203125 7.81640625 12.3203125 6.5625 10.125 C4.82669206 7.08869645 4.01345998 6.00897332 1 4 C1 3.34 1 2.68 1 2 C0.12021484 1.78730469 0.12021484 1.78730469 -0.77734375 1.5703125 C-2.72377074 1.07087781 -4.64629396 0.4801177 -6.5625 -0.125 C-10.97161539 -1.23550481 -14.92686185 -0.89644828 -19.40625 -0.32421875 C-22 0 -22 0 -25.5625 0 C-33.33447248 2.26093745 -39.14827954 9.31150493 -43.0625 16.17578125 C-44.05654383 18.11002488 -45.03604981 20.05058288 -46 22 C-46.66 21.34 -47.32 20.68 -48 20 C-44.66474055 10.77898858 -38.70747628 2.84318177 -29.83203125 -1.578125 C-21.2396764 -5.17487266 -8.27570232 -4.18985288 0 0 Z " fill="#4FD86F" transform="translate(918,351)"/>
<path d="M0 0 C1.32 0 2.64 0 4 0 C4.61875 1.36125 4.61875 1.36125 5.25 2.75 C6.91087883 5.83448925 8.51742356 7.59750667 11 10 C11.70106226 11.31557361 12.36194852 12.65273888 13 14 C13.42796875 14.83273437 13.8559375 15.66546875 14.296875 16.5234375 C15.89853407 19.66647814 17.45615249 22.82816163 19 26 C19.52335938 27.06605469 20.04671875 28.13210938 20.5859375 29.23046875 C28.67690532 46.74720873 29.63697483 63.9177041 29 83 C28.34 83 27.68 83 27 83 C26.9906543 82.33170166 26.98130859 81.66340332 26.97167969 80.97485352 C26.73087224 67.21459631 26.19844858 54.16890428 22 41 C21.78714355 40.32678711 21.57428711 39.65357422 21.35498047 38.95996094 C16.97847357 25.52169756 10.65429228 13.62130994 1.46875 2.79296875 C0 1 0 1 0 0 Z " fill="#58D473" transform="translate(786,443)"/>
<path d="M0 0 C0.66 0.33 1.32 0.66 2 1 C1.93295053 8.72329358 1.84312354 16.44608293 1.73754883 24.16894531 C1.70431962 26.79551191 1.6762815 29.42214957 1.65356445 32.04882812 C1.61998272 35.82713061 1.56766247 39.60478305 1.51171875 43.3828125 C1.50213387 45.14094772 1.50213387 45.14094772 1.49235535 46.93460083 C1.30301558 57.46316368 1.30301558 57.46316368 -2 62 C-5.65288193 63.21762731 -8.15754136 63.39075851 -12 63 C-15.18193625 61.22832057 -17.55823896 59.16751131 -18.875 55.6875 C-18.91625 55.130625 -18.9575 54.57375 -19 54 C-18.236875 54.78375 -17.47375 55.5675 -16.6875 56.375 C-13.1619562 59.94841218 -13.1619562 59.94841218 -8.5 61.1875 C-5.8708247 61.09271387 -5.8708247 61.09271387 -3 60 C-1.80628936 56.95010705 -1.85359714 53.86581311 -1.81054688 50.62060547 C-1.79382935 49.54624237 -1.77711182 48.47187927 -1.7598877 47.36495972 C-1.74631226 46.21069489 -1.73273682 45.05643005 -1.71875 43.8671875 C-1.70034058 42.67900421 -1.68193115 41.49082092 -1.66296387 40.26663208 C-1.58423802 35.17866051 -1.51639953 30.09055741 -1.44775391 25.00244141 C-1.39612849 21.29062145 -1.33885143 17.57891873 -1.28125 13.8671875 C-1.26767456 12.70887421 -1.25409912 11.55056091 -1.2401123 10.35714722 C-1.22339478 9.28908844 -1.20667725 8.22102966 -1.18945312 7.12060547 C-1.17066101 5.70640823 -1.17066101 5.70640823 -1.15148926 4.26364136 C-1 2 -1 2 0 0 Z " fill="#52CD6D" transform="translate(870,373)"/>
<path d="M0 0 C1.96874544 0.01005124 3.93749586 0.01917329 5.90625 0.02734375 C10.68762471 0.04918425 15.46875632 0.08359568 20.25 0.125 C20.745 1.115 20.745 1.115 21.25 2.125 C20.07493896 2.15005615 18.89987793 2.1751123 17.68920898 2.20092773 C13.3075977 2.29547571 8.92612753 2.39557859 4.54467773 2.49731445 C2.65245884 2.54048479 0.76020547 2.58217159 -1.13208008 2.62231445 C-3.86029424 2.68045319 -6.58833772 2.74401936 -9.31640625 2.80859375 C-10.15522842 2.82530624 -10.9940506 2.84201874 -11.85829163 2.85923767 C-16.56388042 2.976511 -21.09473526 3.35953578 -25.75 4.125 C-26.80703125 4.29 -27.8640625 4.455 -28.953125 4.625 C-29.95859375 4.79 -30.9640625 4.955 -32 5.125 C-33.01578125 5.29 -34.0315625 5.455 -35.078125 5.625 C-37.83825937 6.07868099 -37.83825937 6.07868099 -40.75 7.125 C-42.9375 6.1875 -42.9375 6.1875 -44.75 5.125 C-43.16913906 4.65821035 -41.58508407 4.2022415 -40 3.75 C-39.11828125 3.49476563 -38.2365625 3.23953125 -37.328125 2.9765625 C-24.80151908 -0.00466031 -12.80800533 -0.11428018 0 0 Z " fill="#59C76D" transform="translate(710.75,346.875)"/>
<path d="M0 0 C0.79921875 0.20496094 1.5984375 0.40992188 2.421875 0.62109375 C9.97629406 2.47423176 17.23026617 3.67503014 25 4 C26.08925781 4.05285156 27.17851563 4.10570312 28.30078125 4.16015625 C36.28145468 4.36803336 43.53800625 3.37702594 51.30859375 1.75390625 C54.87276887 1.02598477 58.39626048 0.47894861 62 0 C62 0.66 62 1.32 62 2 C52.46378942 6.45023161 42.14603284 6.34486874 31.84130859 6.31567383 C29.50441113 6.31250598 27.16877384 6.33607267 24.83203125 6.36132812 C8.46658226 6.43246901 8.46658226 6.43246901 2 3 C1.34 2.01 0.68 1.02 0 0 Z " fill="#51E270" transform="translate(680,615)"/>
<path d="M0 0 C0.66 0 1.32 0 2 0 C1.67 1.65 1.34 3.3 1 5 C-0.32 5.33 -1.64 5.66 -3 6 C-3.0928125 7.2375 -3.0928125 7.2375 -3.1875 8.5 C-3.95194235 11.79298243 -4.72841563 13.33209757 -6.5625 16.0625 C-8.72964969 19.297789 -9.22464654 21.06868552 -9 25 C-9.44730469 25.4125 -9.89460937 25.825 -10.35546875 26.25 C-12.60872727 28.64776678 -13.21322588 31.06310369 -14.1875 34.1875 C-14.53167969 35.27417969 -14.87585938 36.36085938 -15.23046875 37.48046875 C-15.48441406 38.31191406 -15.73835937 39.14335937 -16 40 C-16.66 40 -17.32 40 -18 40 C-18 41.32 -18 42.64 -18 44 C-18.66 44 -19.32 44 -20 44 C-19.07485999 37.51021185 -17.37471862 32.26546324 -14.28125 26.4921875 C-13.03802517 24.07396359 -12.06914439 21.67256201 -11.125 19.125 C-8.77906248 13.08709523 -5.70758784 7.31481804 -2 2 C-1.34 2 -0.68 2 0 2 C0 1.34 0 0.68 0 0 Z " fill="#4DD06B" transform="translate(573,419)"/>
<path d="M0 0 C0.66 0 1.32 0 2 0 C3.01866229 1.65532623 4.01810813 3.32260138 5 5 C5.66 5.33 6.32 5.66 7 6 C7.33 6.99 7.66 7.98 8 9 C12.94842224 13.75048535 19.17607578 15.19424136 25.8125 15.375 C31.09679804 15.26099865 35.71799912 14.21211483 40.72265625 12.55859375 C43 12 43 12 46 13 C44.75264433 13.6509259 43.50198168 14.29551669 42.25 14.9375 C41.55390625 15.29714844 40.8578125 15.65679688 40.140625 16.02734375 C33.21812355 19.17278693 23.83400897 19.26369368 16.51953125 17.3515625 C9.91415352 14.26641602 3.05742073 8.68810785 0 2 C0 1.34 0 0.68 0 0 Z " fill="#5BDD79" transform="translate(873,666)"/>
<path d="M0 0 C0.33 0 0.66 0 1 0 C1.19622241 4.21878192 0.80230168 7.17010894 -1 11 C-1.66 11 -2.32 11 -3 11 C-4.69957661 21.50394068 -6.60267584 34.13115754 -0.38671875 43.37109375 C1.00244648 45.00287375 2.45359916 46.51708776 4 48 C1 48 1 48 -0.5 46.6015625 C-6.95899646 38.09048904 -8.69057579 30.77865946 -7.29150391 20.20117188 C-6.08636999 12.94630006 -3.25938231 6.55976313 0 0 Z " fill="#5BD97B" transform="translate(956,629)"/>
<path d="M0 0 C0.33 0 0.66 0 1 0 C1.67752879 8.13034546 -0.59461302 13.68963333 -4 21 C-4.56796741 22.31014332 -5.13157811 23.62220028 -5.6875 24.9375 C-6.3371875 26.4534375 -6.3371875 26.4534375 -7 28 C-7.495 29.2684375 -7.495 29.2684375 -8 30.5625 C-9.18676432 33.45523803 -10.57634428 36.21740018 -12 39 C-12.66 39 -13.32 39 -14 39 C-13.34495775 35.01642378 -12.12043938 31.57253467 -10.56640625 27.8515625 C-10.08236328 26.68109375 -9.59832031 25.510625 -9.09960938 24.3046875 C-8.33874023 22.48324219 -8.33874023 22.48324219 -7.5625 20.625 C-6.56030444 18.2228104 -5.56149996 15.81920269 -4.56640625 13.4140625 C-4.12240479 12.3513916 -3.67840332 11.2887207 -3.22094727 10.19384766 C-1.93205019 6.82225167 -0.94327673 3.48181296 0 0 Z " fill="#4FDA6E" transform="translate(975,579)"/>
<path d="M0 0 C-0.66596247 2.6638499 -1.35953558 4.49504946 -3.55078125 6.22265625 C-6.97739531 8.26981968 -8.95799164 9 -13 9 C-13.08507812 9.59296875 -13.17015625 10.1859375 -13.2578125 10.796875 C-14.21199246 13.62928288 -15.47534178 14.50958854 -17.875 16.25 C-18.57367187 16.77078125 -19.27234375 17.2915625 -19.9921875 17.828125 C-22 19 -22 19 -25 19 C-25.33 19.66 -25.66 20.32 -26 21 C-26.66 20.34 -27.32 19.68 -28 19 C-21.88964887 13.74077886 -15.63332233 8.91863119 -8.9375 4.4375 C-8.28257568 3.99615723 -7.62765137 3.55481445 -6.95288086 3.10009766 C-2.25346783 0 -2.25346783 0 0 0 Z " fill="#3FC564" transform="translate(630,367)"/>
<path d="M0 0 C8.76682494 -0.2176591 17.39513894 -0.03923539 26.125 0.8125 C26.91753174 0.88259277 27.71006348 0.95268555 28.52661133 1.02490234 C33.31480607 1.53557516 36.71613921 2.67830589 41 5 C43.37834149 5.58997618 45.72681933 5.9862222 48.14453125 6.375 C49.06298828 6.684375 49.06298828 6.684375 50 7 C50.495 8.485 50.495 8.485 51 10 C52.65 10 54.3 10 56 10 C56 10.66 56 11.32 56 12 C51.31200322 11.68036386 47.73639352 10.54137422 43.4375 8.625 C29.56462052 2.69656505 14.87174872 2.07050453 0 1 C0 0.67 0 0.34 0 0 Z " fill="#5AD974" transform="translate(704,409)"/>
<path d="M0 0 C2 1 2 1 2.89453125 3.5546875 C3.34892578 5.19824219 3.34892578 5.19824219 3.8125 6.875 C5.42401364 12.40887704 7.44692277 17.42524499 10.046875 22.5625 C11.0851486 25.21775708 11.18161357 27.17490005 11 30 C11.66 30 12.32 30 13 30 C13.66 33.3 14.32 36.6 15 40 C15.66 40 16.32 40 17 40 C18.42258812 43.82320557 19.24042276 46.91281305 19 51 C16.42267801 48.42267801 15.85717658 46.07687942 14.6875 42.625 C13.14045091 38.15422756 11.53062925 33.73375159 9.6875 29.375 C7.30913943 23.73882078 4.94526961 18.09784937 2.625 12.4375 C2.25463623 11.55562012 1.88427246 10.67374023 1.50268555 9.76513672 C1.16406494 8.93385254 0.82544434 8.10256836 0.4765625 7.24609375 C0.16799316 6.50029053 -0.14057617 5.7544873 -0.45849609 4.98608398 C-1 3 -1 3 0 0 Z " fill="#57DF70" transform="translate(1110,524)"/>
<path d="M0 0 C0.33 0 0.66 0 1 0 C1.65863967 8.59890679 -0.07121664 15.1967953 -4.5625 22.5625 C-6.34251843 25.58079211 -7.15707294 28.63810314 -8.05859375 32.01171875 C-9.24922449 34.5263704 -10.4542487 35.02247332 -13 36 C-11.76162914 32.14979241 -10.37388795 28.45246453 -8.75 24.75 C-5.33350663 16.67279778 -2.69601848 8.33820147 0 0 Z " fill="#4BCC66" transform="translate(1030,434)"/>
<path d="M0 0 C0.66 1.32 1.32 2.64 2 4 C1.01 4 0.02 4 -1 4 C-1 4.66 -1 5.32 -1 6 C-2.64821244 7.03013277 -4.32111559 8.02065076 -6 9 C-7.29960693 9.98965883 -8.59070304 10.99055258 -9.875 12 C-14.83418193 15.75440892 -19.54234294 18.58705973 -26 18 C-26 18.66 -26 19.32 -26 20 C-27.65 20 -29.3 20 -31 20 C-27.22291055 16.87241006 -22.96112857 14.79389262 -18.625 12.5625 C-8.5431149 7.37659419 -8.5431149 7.37659419 0 0 Z " fill="#4FD56A" transform="translate(774,595)"/>
<path d="M0 0 C0.33 0.99 0.66 1.98 1 3 C0.360625 3.639375 -0.27875 4.27875 -0.9375 4.9375 C-1.39253906 5.39511719 -1.84757813 5.85273438 -2.31640625 6.32421875 C-3.56415766 7.56618013 -4.8238694 8.79615043 -6.08984375 10.01953125 C-10.67405082 14.4940308 -14.70681016 19.00524112 -18.39453125 24.25 C-20.22558619 26.24589444 -21.35639023 26.63299127 -24 27 C-24 26.34 -24 25.68 -24 25 C-23.34 25 -22.68 25 -22 25 C-21.34 23.68 -20.68 22.36 -20 21 C-19.34 21 -18.68 21 -18 21 C-17.773125 20.113125 -17.54625 19.22625 -17.3125 18.3125 C-15.00807576 12.49657216 -9.76064278 8.81985793 -5.1875 4.6875 C-4.21167969 3.80449219 -3.23585938 2.92148437 -2.23046875 2.01171875 C-1.49441406 1.34785156 -0.75835938 0.68398438 0 0 Z " fill="#3ACB61" transform="translate(601,387)"/>
<path d="M0 0 C3.44512942 3.13291456 4.6807529 6.81753589 6.25 11.10546875 C6.54938477 11.90350418 6.84876953 12.70153961 7.15722656 13.52375793 C8.11252378 16.07553897 9.056406 18.63137124 10 21.1875 C10.63466493 22.88895247 11.27007373 24.59012767 11.90625 26.29101562 C13.34837355 30.1509565 14.78774183 34.01182829 16.20507812 37.88095093 C16.75052638 39.33497006 17.31820333 40.78078583 17.90429688 42.21890259 C20.10391501 47.68825496 20.10391501 47.68825496 19 51 C11.02819797 33.81488579 11.02819797 33.81488579 8.625 25.25 C7.04432588 19.70007752 4.68760767 14.5369283 2.3046875 9.296875 C1.06000521 6.15162992 0.41566607 3.34560496 0 0 Z " fill="#51D26F" transform="translate(1123,389)"/>
<path d="M0 0 C4.0959053 0.68265088 7.7487044 1.96310765 11.625 3.4375 C17.70536587 5.65670526 23.59466161 7.12416802 30 8 C30 8.66 30 9.32 30 10 C30.90492188 9.83951172 30.90492188 9.83951172 31.828125 9.67578125 C38.4373928 8.68439108 38.4373928 8.68439108 41.5625 10.4375 C42.036875 10.953125 42.51125 11.46875 43 12 C29.93689907 15.58260417 11.62963011 6.68663276 0 1 C0 0.67 0 0.34 0 0 Z " fill="#5CD97D" transform="translate(643,667)"/>
<path d="M0 0 C0.99 0.33 1.98 0.66 3 1 C-2.9150876 8.00524026 -9.46749537 12.39107653 -18.7265625 13.41015625 C-25.60340652 13.56864063 -32.87908531 13.54983835 -39 10 C-39.66 9.01 -40.32 8.02 -41 7 C-40.154375 7.28875 -39.30875 7.5775 -38.4375 7.875 C-37.303125 8.24625 -36.16875 8.6175 -35 9 C-33.88625 9.37125 -32.7725 9.7425 -31.625 10.125 C-24.77886965 11.77751422 -17.64648222 11.45146386 -11 9 C-10.22076172 8.22076172 -10.22076172 8.22076172 -9.42578125 7.42578125 C-8.95527344 6.95527344 -8.48476563 6.48476563 -8 6 C-7.01 6 -6.02 6 -5 6 C-5 5.34 -5 4.68 -5 4 C-4.01 4 -3.02 4 -2 4 C-2 3.34 -2 2.68 -2 2 C-1.34 2 -0.68 2 0 2 C0 1.34 0 0.68 0 0 Z " fill="#69D78A" transform="translate(1001,671)"/>
<path d="M0 0 C2.53588867 0.00366211 2.53588867 0.00366211 5.73046875 0.33984375 C12.92378563 1.01269981 20.093346 1.32172996 27.3125 1.5625 C28.54162109 1.60568359 29.77074219 1.64886719 31.03710938 1.69335938 C34.02466486 1.79798194 37.01228143 1.90016327 40 2 C36.73318245 4.17787836 35.76955198 4.25607681 31.984375 4.265625 C30.98664062 4.26949219 29.98890625 4.27335938 28.9609375 4.27734375 C27.37152344 4.26380859 27.37152344 4.26380859 25.75 4.25 C24.13738281 4.24419922 24.13738281 4.24419922 22.4921875 4.23828125 C14.1858362 4.14864437 6.17574812 3.46744197 -2 2 C-1.34 1.34 -0.68 0.68 0 0 Z " fill="#5EC37A" transform="translate(685,679)"/>
<path d="M0 0 C1 2 1 2 0.25 4.75 C-1 8 -1 8 -2.375 10.625 C-4.33259112 14.69076618 -5.62894468 18.85258279 -7.015625 23.140625 C-8.10039391 26.29162041 -9.3851796 29.09332327 -11 32 C-11.66 32 -12.32 32 -13 32 C-10.34129217 20.78211871 -6.71113981 9.46517127 0 0 Z " fill="#44C867" transform="translate(1061,358)"/>
<path d="M0 0 C9.78961436 -0.45415737 18.45724348 -0.24353244 26.3125 6.1875 C31.46271253 11.11921867 35.40428276 16.97884416 37 24 C36.67 25.32 36.34 26.64 36 28 C35.01 24.37 34.02 20.74 33 17 C32.34 17 31.68 17 31 17 C29.81640625 15.3203125 29.81640625 15.3203125 28.5625 13.125 C26.82669206 10.08869645 26.01345998 9.00897332 23 7 C23 6.34 23 5.68 23 5 C22.41347656 4.855625 21.82695313 4.71125 21.22265625 4.5625 C19.28622269 4.07243597 17.36065328 3.5398325 15.4375 3 C10.35879137 1.71352182 5.21310165 1.36415048 0 1 C0 0.67 0 0.34 0 0 Z " fill="#5CD579" transform="translate(896,348)"/>
<path d="M0 0 C0.66 0 1.32 0 2 0 C1.39017305 3.49717087 0.47678686 6.59508305 -0.875 9.875 C-1.22820313 10.73609375 -1.58140625 11.5971875 -1.9453125 12.484375 C-3.2786306 15.66458558 -4.62502407 18.83755537 -6 22 C-6.66 22 -7.32 22 -8 22 C-8.33 23.98 -8.66 25.96 -9 28 C-9.66 28 -10.32 28 -11 28 C-10.37386216 24.35627114 -9.3731497 21.15125221 -7.96875 17.734375 C-7.57042969 16.76242187 -7.17210937 15.79046875 -6.76171875 14.7890625 C-6.13716797 13.28472656 -6.13716797 13.28472656 -5.5 11.75 C-5.08363281 10.73164062 -4.66726563 9.71328125 -4.23828125 8.6640625 C-1.13722364 1.13722364 -1.13722364 1.13722364 0 0 Z " fill="#4AC264" transform="translate(988,548)"/>
<path d="M0 0 C0.99 0.33 1.98 0.66 3 1 C2.21086057 3.08429193 1.41859037 5.16739869 0.625 7.25 C0.18414063 8.41015625 -0.25671875 9.5703125 -0.7109375 10.765625 C-1.70804948 13.26746959 -2.79298794 15.60131925 -4 18 C-4.47147047 19.34964899 -4.92998588 20.70389806 -5.375 22.0625 C-6.60072314 25.43795295 -7.7596648 27.21222885 -11 29 C-10.690625 28.484375 -10.38125 27.96875 -10.0625 27.4375 C-8.70940713 24.33334577 -8.38640576 21.34884993 -8 18 C-7.34 18 -6.68 18 -6 18 C-5.81824219 17.28714844 -5.63648438 16.57429687 -5.44921875 15.83984375 C-4.00217222 10.32622542 -2.41108634 5.16661358 0 0 Z " fill="#4BD96B" transform="translate(809,543)"/>
<path d="M0 0 C-0.1875 1.8125 -0.1875 1.8125 -1 4 C-1.78375 4.4125 -2.5675 4.825 -3.375 5.25 C-6.30726607 7.20484405 -6.51695277 7.85654028 -7.5625 11.0625 C-8.80413643 14.84983793 -8.80413643 14.84983793 -10.875 16.4375 C-13.23962654 17.06343055 -15.58681964 17.59780327 -18 18 C-16.74118172 14.91017331 -15.03652546 12.85887754 -12.6328125 10.5703125 C-11.31088424 9.29898437 -10.02123854 7.99414479 -8.7421875 6.6796875 C-7.94039062 5.85726562 -7.13859375 5.03484375 -6.3125 4.1875 C-5.16201172 3.00220703 -5.16201172 3.00220703 -3.98828125 1.79296875 C-2 0 -2 0 0 0 Z " fill="#44D467" transform="translate(796,575)"/>
<path d="M0 0 C1.32 0 2.64 0 4 0 C4.61875 1.36125 4.61875 1.36125 5.25 2.75 C6.91087883 5.83448925 8.51742356 7.59750667 11 10 C11.7016639 11.31525283 12.36154498 12.65293007 13 14 C13.474375 14.92554688 13.94875 15.85109375 14.4375 16.8046875 C15.2109375 18.32449219 15.2109375 18.32449219 16 19.875 C16.515625 20.88304687 17.03125 21.89109375 17.5625 22.9296875 C18.95694815 25.90804686 20.02582697 28.8620388 21 32 C20.34 32 19.68 32 19 32 C18.52691406 30.99582031 18.05382812 29.99164063 17.56640625 28.95703125 C13.09849038 19.65439619 8.09276669 11.33015197 2 3 C1.34 2.01 0.68 1.02 0 0 Z " fill="#5BE181" transform="translate(786,443)"/>
<path d="M0 0 C-0.66 0.66 -1.32 1.32 -2 2 C-5.125 1.625 -5.125 1.625 -8 1 C-8 0.34 -8 -0.32 -8 -1 C-8.89138672 -0.81824219 -8.89138672 -0.81824219 -9.80078125 -0.6328125 C-10.62964844 -0.46523438 -11.45851563 -0.29765625 -12.3125 -0.125 C-13.22128906 0.06191406 -14.13007812 0.24882812 -15.06640625 0.44140625 C-17.00311642 0.81018062 -18.94951148 1.13162811 -20.90234375 1.40234375 C-27.1341805 2.29993341 -30.57501873 3.45542464 -35 8 C-35 7.01 -35 6.02 -35 5 C-25.50733848 -3.28083239 -11.63687295 -4.39653971 0 0 Z " fill="#4BD374" transform="translate(1099,350)"/>
<path d="M0 0 C1.32 0 2.64 0 4 0 C4 0.66 4 1.32 4 2 C5.5778125 2.3403125 5.5778125 2.3403125 7.1875 2.6875 C11.18755792 3.80041934 13.15432227 6.00050186 16 9 C18.17346568 9.86119134 18.17346568 9.86119134 20 10 C20 10.66 20 11.32 20 12 C20.66 12.33 21.32 12.66 22 13 C22 13.99 22 14.98 22 16 C22.66 16.66 23.32 17.32 24 18 C21 18 21 18 19.24609375 16.50390625 C18.64925781 15.86324219 18.05242188 15.22257812 17.4375 14.5625 C14.99710571 11.9103837 14.99710571 11.9103837 12 10 C12 9.34 12 8.68 12 8 C11.42765625 7.72285156 10.8553125 7.44570313 10.265625 7.16015625 C8.02232523 6.01143206 5.89123711 4.76586006 3.75 3.4375 C3.04359375 3.00308594 2.3371875 2.56867188 1.609375 2.12109375 C1.07828125 1.75113281 0.5471875 1.38117188 0 1 C0 0.67 0 0.34 0 0 Z " fill="#4FD06D" transform="translate(763,424)"/>
<path d="M0 0 C4.52974226 1.38408791 6.11415594 3.35025604 9 7 C10.22581716 7.92864937 11.47754184 8.82386374 12.75 9.6875 C14.35875 10.8321875 14.35875 10.8321875 16 12 C16 12.66 16 13.32 16 14 C16.99 14 17.98 14 19 14 C19 14.66 19 15.32 19 16 C19.99 16 20.98 16 22 16 C22 16.66 22 17.32 22 18 C23.98 18.66 25.96 19.32 28 20 C26.02 20.99 26.02 20.99 24 22 C23.01 21.34 22.02 20.68 21 20 C21 19.34 21 18.68 21 18 C20.15888672 17.61908203 20.15888672 17.61908203 19.30078125 17.23046875 C12.07395628 13.3655284 5.38540966 7.1522064 0 1 C0 0.67 0 0.34 0 0 Z " fill="#5ADB74" transform="translate(592,631)"/>
<path d="M0 0 C8.58 0 17.16 0 26 0 C22.4584111 3.5415889 18.52619672 3.15907052 13.6875 3.1875 C8.70544662 3.1594479 4.65693267 2.73281216 0 1 C0 0.67 0 0.34 0 0 Z " fill="#57E378" transform="translate(1182,681)"/>
<path d="M0 0 C0.66 0 1.32 0 2 0 C0.7316737 3.9202813 -0.66636125 7.76868159 -2.15771484 11.609375 C-5.00519211 18.9696669 -7.33089182 26.26939367 -9 34 C-9.33 34 -9.66 34 -10 34 C-10.20674944 28.21101581 -9.59162079 23.57067277 -8 18 C-7.34 18 -6.68 18 -6 18 C-5.8453125 16.7625 -5.8453125 16.7625 -5.6875 15.5 C-4.61423559 10.03610848 -2.65443548 4.90049627 0 0 Z " fill="#56DE73" transform="translate(619,462)"/>
<path d="M0 0 C3 1 3 1 4.2109375 3.3359375 C4.59507813 4.33882813 4.97921875 5.34171875 5.375 6.375 C7.39899516 11.50530797 9.56963415 16.5233467 11.88671875 21.52734375 C13.5818143 25.29224019 15.10277824 28.96250209 16 33 C13 32 13 32 12.00439453 30.2409668 C11.71677246 29.48468994 11.42915039 28.72841309 11.1328125 27.94921875 C10.80667969 27.11036133 10.48054688 26.27150391 10.14453125 25.40722656 C9.80808594 24.5097168 9.47164062 23.61220703 9.125 22.6875 C8.4199275 20.86302734 7.71419947 19.03880788 7.0078125 17.21484375 C6.6665332 16.32394043 6.32525391 15.43303711 5.97363281 14.51513672 C4.70399546 11.23534635 3.36233667 7.99236127 2 4.75 C1.608125 3.81671875 1.21625 2.8834375 0.8125 1.921875 C0.544375 1.28765625 0.27625 0.6534375 0 0 Z " fill="#52E378" transform="translate(1086,470)"/>
<path d="M0 0 C1.65 0 3.3 0 5 0 C5 0.66 5 1.32 5 2 C5.53367187 2.21914063 6.06734375 2.43828125 6.6171875 2.6640625 C22.76923077 9.53846154 22.76923077 9.53846154 25 14 C18.72411099 12.34845026 13.53052102 9.7547593 8 6.4375 C7.3289624 6.03732666 6.6579248 5.63715332 5.96655273 5.22485352 C1.13172629 2.26345257 1.13172629 2.26345257 0 0 Z " fill="#52D974" transform="translate(618,653)"/>
<path d="M0 0 C6.62550561 1.34790144 12.88132486 3.17873043 19.25 5.4375 C20.12140625 5.73720703 20.9928125 6.03691406 21.890625 6.34570312 C26.22433184 7.86844615 30.16535806 9.40923985 34 12 C33.34 12.33 32.68 12.66 32 13 C30.08203125 12.29296875 30.08203125 12.29296875 27.8125 11.1875 C23.92483731 9.37655379 20.14155464 8.14249783 16 7 C13.20538105 5.99442179 10.42507236 4.95651028 7.6484375 3.90234375 C5.10634365 3.03623213 2.64221888 2.46262677 0 2 C0 1.34 0 0.68 0 0 Z " fill="#56D070" transform="translate(748,351)"/>
<path d="M0 0 C0.79921875 0.20496094 1.5984375 0.40992188 2.421875 0.62109375 C9.96298165 2.47096616 17.24734036 3.59490607 25 4 C24.67 4.66 24.34 5.32 24 6 C16.38542129 6.35325365 9.00539419 6.39105735 2 3 C1.34 2.01 0.68 1.02 0 0 Z " fill="#4FD56C" transform="translate(680,615)"/>
<path d="M0 0 C4.33418792 2.16709396 5.53680466 9.54793456 7.1875 13.875 C7.66380859 15.08542969 8.14011719 16.29585938 8.63085938 17.54296875 C9.07623047 18.70183594 9.52160156 19.86070312 9.98046875 21.0546875 C10.59764771 22.65546143 10.59764771 22.65546143 11.22729492 24.28857422 C12 27 12 27 11 30 C8.99006295 26.98509443 8.27376659 24.7850073 7.375 21.3125 C7.11460938 20.31863281 6.85421875 19.32476562 6.5859375 18.30078125 C6.39257812 17.54152344 6.19921875 16.78226562 6 16 C5.34 16 4.68 16 4 16 C3.5186659 14.27143541 3.04003029 12.54211929 2.5625 10.8125 C2.29566406 9.84957031 2.02882813 8.88664062 1.75390625 7.89453125 C1.07119982 5.27336303 0.50107805 2.661065 0 0 Z " fill="#53DC74" transform="translate(1155,472)"/>
<path d="M0 0 C-1.24735567 0.6509259 -2.49801832 1.29551669 -3.75 1.9375 C-4.44609375 2.29714844 -5.1421875 2.65679688 -5.859375 3.02734375 C-9.79637579 4.81623645 -13.24973868 5.15816149 -17.5625 5.1875 C-18.51253906 5.20167969 -19.46257813 5.21585938 -20.44140625 5.23046875 C-23 5 -23 5 -26 3 C-25.26136719 2.96261719 -24.52273438 2.92523437 -23.76171875 2.88671875 C-17.28073079 2.46673097 -11.46685066 1.50480682 -5.27734375 -0.4765625 C-3 -1 -3 -1 0 0 Z " fill="#5AED7F" transform="translate(919,679)"/>
<path d="M0 0 C4.48566507 3.83655155 5.76162671 9.61821993 7.75 15 C8.17410156 16.10601563 8.59820313 17.21203125 9.03515625 18.3515625 C9.62876953 19.94097656 9.62876953 19.94097656 10.234375 21.5625 C10.59756836 22.53316406 10.96076172 23.50382813 11.33496094 24.50390625 C12 27 12 27 11 30 C0 5.12714777 0 5.12714777 0 0 Z " fill="#52DF77" transform="translate(1195,577)"/>
<path d="M0 0 C0.33 0 0.66 0 1 0 C0.68676801 7.36095182 -0.93914605 13.30883089 -4 20 C-4.66 20 -5.32 20 -6 20 C-6 20.99 -6 21.98 -6 23 C-6.66 23 -7.32 23 -8 23 C-5.47191206 15.28267891 -2.74972528 7.64054098 0 0 Z " fill="#45BF60" transform="translate(1041,405)"/>
<path d="M0 0 C2 1 2 1 2.6328125 2.84765625 C2.87644531 3.94400391 2.87644531 3.94400391 3.125 5.0625 C3.29257813 5.79597656 3.46015625 6.52945312 3.6328125 7.28515625 C3.75398438 7.85105469 3.87515625 8.41695313 4 9 C3.34 8.67 2.68 8.34 2 8 C2 7.01 2 6.02 2 5 C-2.17950077 8.45889719 -3.32762134 11.98286401 -5 17 C-5.66 17 -6.32 17 -7 17 C-7 18.32 -7 19.64 -7 21 C-7.66 21 -8.32 21 -9 21 C-6.76686274 13.55620912 -3.59727921 6.88023305 0 0 Z " fill="#032808" transform="translate(1086,471)"/>
<path d="M0 0 C0.66 0 1.32 0 2 0 C0.49755015 6.21012607 -1.72596651 11.86013756 -4.5625 17.5625 C-4.86744385 18.18205566 -5.1723877 18.80161133 -5.48657227 19.43994141 C-7.74482065 23.87241032 -7.74482065 23.87241032 -10 25 C-9.67 23.02 -9.34 21.04 -9 19 C-8.34 19 -7.68 19 -7 19 C-6.8865625 18.30261719 -6.773125 17.60523438 -6.65625 16.88671875 C-5.92453549 13.66804598 -4.79650532 10.84647321 -3.5 7.8125 C-3.0565625 6.76707031 -2.613125 5.72164062 -2.15625 4.64453125 C-1.47246222 3.08059771 -0.76334184 1.52668369 0 0 Z " fill="#51D270" transform="translate(1014,646)"/>
<path d="M0 0 C0.33 0 0.66 0 1 0 C1.56325433 7.51005778 -1.57850882 13.48287394 -5 20 C-5.66 20 -6.32 20 -7 20 C-6.29937517 15.43263559 -4.68729793 11.4300495 -2.9375 7.1875 C-2.51500977 6.14819336 -2.51500977 6.14819336 -2.08398438 5.08789062 C-1.39325027 3.39032376 -0.69716272 1.69493688 0 0 Z " fill="#4CCA69" transform="translate(968,598)"/>
<path d="M0 0 C0.66 1.32 1.32 2.64 2 4 C1.01 4 0.02 4 -1 4 C-1 4.66 -1 5.32 -1 6 C-2.63790712 7.04644066 -4.31008021 8.0398183 -6 9 C-6.70125 9.5775 -7.4025 10.155 -8.125 10.75 C-9.053125 11.36875 -9.053125 11.36875 -10 12 C-10.99 11.67 -11.98 11.34 -13 11 C-10.22321976 8.01753234 -7.47614306 6.08568584 -4 4 C-2.63015802 2.70420353 -1.2848951 1.38007251 0 0 Z " fill="#40C75C" transform="translate(774,595)"/>
<path d="M0 0 C1.1916143 3.57484289 0.74788456 4.28587882 -0.65234375 7.66796875 C-1.01650391 8.56064453 -1.38066406 9.45332031 -1.75585938 10.37304688 C-2.14580078 11.30181641 -2.53574219 12.23058594 -2.9375 13.1875 C-3.32357422 14.12787109 -3.70964844 15.06824219 -4.10742188 16.03710938 C-5.06321649 18.36169628 -6.02767007 20.68229199 -7 23 C-8.09658936 19.71023192 -7.79953138 18.28696233 -7 15 C-6.34 15 -5.68 15 -5 15 C-5.061875 14.154375 -5.12375 13.30875 -5.1875 12.4375 C-4.95984372 8.26380157 -3.79792186 5.74567053 -2 2 C-1.34 2 -0.68 2 0 2 C0 1.34 0 0.68 0 0 Z " fill="#54DA75" transform="translate(1058,537)"/>
<path d="M0 0 C9.05638678 -0.15178302 17.97582223 0.30962574 27 1 C27 1.33 27 1.66 27 2 C18.42 2.33 9.84 2.66 1 3 C0.67 2.01 0.34 1.02 0 0 Z " fill="#49B55F" transform="translate(692,409)"/>
<path d="M0 0 C3.36637397 1.4427317 5.66502571 3.16467407 8 6 C8 7.32 8 8.64 8 10 C8.66 10 9.32 10 10 10 C10 10.66 10 11.32 10 12 C10.99 12.33 11.98 12.66 13 13 C12.67 13.99 12.34 14.98 12 16 C10.56041153 14.41856529 9.12341355 12.83477221 7.6875 11.25 C6.88699219 10.36828125 6.08648438 9.4865625 5.26171875 8.578125 C0 2.58031088 0 2.58031088 0 0 Z " fill="#5ADE75" transform="translate(579,615)"/>
<path d="M0 0 C0.33 0 0.66 0 1 0 C1.69328371 7.51827663 0.67241975 12.02597761 -4 18 C-5.72251754 13.9154674 -4.07280563 10.63026304 -2.5625 6.75 C-2.31951172 6.1003125 -2.07652344 5.450625 -1.82617188 4.78125 C-1.22714006 3.18383183 -0.61485679 1.59139406 0 0 Z " fill="#46C164" transform="translate(1030,434)"/>
<path d="M0 0 C0 0.33 0 0.66 0 1 C-0.91523437 1.12117188 -1.83046875 1.24234375 -2.7734375 1.3671875 C-4.55621094 1.61855469 -4.55621094 1.61855469 -6.375 1.875 C-7.55835938 2.03742188 -8.74171875 2.19984375 -9.9609375 2.3671875 C-13.09566659 2.7302585 -13.09566659 2.7302585 -15 5 C-17.625 5.125 -17.625 5.125 -20 5 C-14.55383475 -1.72761589 -7.76276833 -1.29639793 0 0 Z " fill="#4ACA66" transform="translate(902,349)"/>
<path d="M0 0 C0.33 0 0.66 0 1 0 C1.53257191 2.56055758 2.05131844 5.12266329 2.5625 7.6875 C2.78969727 8.7693457 2.78969727 8.7693457 3.02148438 9.87304688 C3.80997493 13.88884763 4.19640878 16.98291885 3 21 C0.21554556 15.987982 -0.12483509 11.35999344 -0.0625 5.6875 C-0.05347656 4.61886719 -0.04445313 3.55023437 -0.03515625 2.44921875 C-0.02355469 1.64097656 -0.01195312 0.83273437 0 0 Z " fill="#54DD72" transform="translate(548,536)"/>
<path d="M0 0 C2.0625 0.4375 2.0625 0.4375 4 1 C2.59535704 2.82183392 1.1758376 4.63220561 -0.25 6.4375 C-1.43335938 7.95150391 -1.43335938 7.95150391 -2.640625 9.49609375 C-4.90655283 11.90082842 -5.78577367 12.71248893 -9 13 C-9 12.34 -9 11.68 -9 11 C-8.34 11 -7.68 11 -7 11 C-6.34 9.68 -5.68 8.36 -5 7 C-4.34 7 -3.68 7 -3 7 C-2.690625 6.030625 -2.38125 5.06125 -2.0625 4.0625 C-1 1 -1 1 0 0 Z " fill="#3FCC63" transform="translate(586,401)"/>
<path d="M0 0 C0 0.33 0 0.66 0 1 C-1.12019531 1.27714844 -2.24039063 1.55429687 -3.39453125 1.83984375 C-4.86720302 2.20566667 -6.33985842 2.57155553 -7.8125 2.9375 C-8.55048828 3.11990234 -9.28847656 3.30230469 -10.04882812 3.49023438 C-13.07060984 4.2422615 -16.04456718 5.01485573 -19 6 C-21.1875 5.0625 -21.1875 5.0625 -23 4 C-15.27047717 1.8131777 -8.09603484 -0.19276273 0 0 Z " fill="#5AD173" transform="translate(689,348)"/>
<path d="M0 0 C0.66 0 1.32 0 2 0 C0.63886645 4.22395248 -1.15484885 6.42893626 -4.5 9.3125 C-5.2940625 10.00988281 -6.088125 10.70726562 -6.90625 11.42578125 C-9 13 -9 13 -11 13 C-10.25 10.5625 -10.25 10.5625 -9 8 C-7.0625 7.4375 -7.0625 7.4375 -5 7 C-3.96854629 5.69084721 -2.96457834 4.35917857 -2 3 C-1.34 3 -0.68 3 0 3 C0 2.01 0 1.02 0 0 Z " fill="#5DE67D" transform="translate(1219,668)"/>
<path d="M0 0 C1.98 0 3.96 0 6 0 C6.8466034 1.38782485 7.67675339 2.78569397 8.5 4.1875 C8.9640625 4.96480469 9.428125 5.74210938 9.90625 6.54296875 C11.10729647 9.24103386 11.20741043 11.0806982 11 14 C9.07090275 11.58862843 7.51649985 9.1501005 6.0625 6.4375 C4.45020445 3.53661303 2.88643349 1.75247747 0 0 Z " fill="#4FDA6D" transform="translate(1148,636)"/>
<path d="M0 0 C0.33 0 0.66 0 1 0 C1.19622241 4.21878192 0.80230168 7.17010894 -1 11 C-1.66 11 -2.32 11 -3 11 C-3.12375 12.134375 -3.2475 13.26875 -3.375 14.4375 C-3.58125 15.613125 -3.7875 16.78875 -4 18 C-4.66 18.33 -5.32 18.66 -6 19 C-5.52877252 12.0886636 -2.79363994 6.27795839 0 0 Z " fill="#48CB69" transform="translate(956,629)"/>
<path d="M0 0 C2.32217616 3.48326424 3.71673124 7.11024921 5.1875 11 C5.47302734 11.72445312 5.75855469 12.44890625 6.05273438 13.1953125 C8.11864075 18.64407774 8.11864075 18.64407774 7 22 C0.29612756 7.40318907 0.29612756 7.40318907 0 0 Z " fill="#54D876" transform="translate(1187,554)"/>
<path d="M0 0 C2.23915618 3.35873427 3.69032729 6.8389434 5.1875 10.5625 C5.47302734 11.24763672 5.75855469 11.93277344 6.05273438 12.63867188 C6.76394161 14.4019813 7.38874045 16.19960071 8 18 C7.67 18.66 7.34 19.32 7 20 C4.37613513 16.93882432 4 16.26826873 4 12 C3.34 12 2.68 12 2 12 C0.86235649 7.73383684 0 4.43513689 0 0 Z " fill="#49CC67" transform="translate(1167,502)"/>
<path d="M0 0 C2 1 2 1 3.03515625 3.765625 C3.54369141 5.49039063 3.54369141 5.49039063 4.0625 7.25 C4.40410156 8.38953125 4.74570313 9.5290625 5.09765625 10.703125 C5.85297344 13.46281205 6.4871117 16.1870456 7 19 C4.42327573 15.85488067 2.82607507 12.67836053 1.25 8.9375 C0.80140625 7.89464844 0.3528125 6.85179687 -0.109375 5.77734375 C-1 3 -1 3 0 0 Z " fill="#59E679" transform="translate(1110,524)"/>
<path d="M0 0 C0.99 0.33 1.98 0.66 3 1 C2.69320312 1.54140625 2.38640625 2.0828125 2.0703125 2.640625 C0.84371789 5.34450508 0.36256224 7.82462658 -0.125 10.75 C-0.29257812 11.73484375 -0.46015625 12.7196875 -0.6328125 13.734375 C-0.75398437 14.48203125 -0.87515625 15.2296875 -1 16 C-1.66 16 -2.32 16 -3 16 C-2.88590318 13.89521396 -2.75834639 11.79115423 -2.625 9.6875 C-2.55539062 8.51574219 -2.48578125 7.34398437 -2.4140625 6.13671875 C-2 3 -2 3 0 0 Z " fill="#50E775" transform="translate(553,463)"/>
<path d="M0 0 C1.32 0.33 2.64 0.66 4 1 C1.89605554 2.45865479 -0.2081464 3.91693566 -2.3125 5.375 C-2.90740234 5.7875 -3.50230469 6.2 -4.11523438 6.625 C-6.73083402 8.43692377 -9.35242582 10.23495055 -12 12 C-12 10.68 -12 9.36 -12 8 C-10.02 7.34 -8.04 6.68 -6 6 C-6 5.34 -6 4.68 -6 4 C-4.02 3.34 -2.04 2.68 0 2 C0 1.34 0 0.68 0 0 Z " fill="#55DD75" transform="translate(653,425)"/>
<path d="M0 0 C1.32 0 2.64 0 4 0 C4.61875 1.36125 4.61875 1.36125 5.25 2.75 C6.90076745 5.81571099 8.48483291 7.65251072 11 10 C11.33 10.66 11.66 11.32 12 12 C11.34 12.66 10.68 13.32 10 14 C8.51887554 12.04312041 7.04003653 10.08458563 5.5625 8.125 C5.14162109 7.56941406 4.72074219 7.01382812 4.28710938 6.44140625 C1.11328125 2.2265625 1.11328125 2.2265625 0 0 Z " fill="#51D975" transform="translate(786,443)"/>
<path d="M0 0 C3.96 0 7.92 0 12 0 C12 0.66 12 1.32 12 2 C13.65 2 15.3 2 17 2 C17 2.33 17 2.66 17 3 C14.35319096 2.88660796 11.70822482 2.75987127 9.0625 2.625 C8.30775391 2.5940625 7.55300781 2.563125 6.77539062 2.53125 C4.84492605 2.4273685 2.92057919 2.22104386 1 2 C0.67 1.34 0.34 0.68 0 0 Z " fill="#032D0A" transform="translate(731,347)"/>
<path d="M0 0 C3 0 3 0 4.5 1.42578125 C4.995 2.04839844 5.49 2.67101562 6 3.3125 C7.90178008 5.67486744 9.81875816 7.89016786 12 10 C7.15853891 8.53289058 3.44051028 5.6487256 0 2 C0 1.34 0 0.68 0 0 Z " fill="#58DB7A" transform="translate(1170,671)"/>
<path d="M0 0 C0.99 0.33 1.98 0.66 3 1 C2.375 2.875 2.375 2.875 1 5 C-2 6.3125 -2 6.3125 -5 7 C-5.66 6.67 -6.32 6.34 -7 6 C-4.74259377 3.66475218 -2.7194239 1.81294927 0 0 Z " fill="#39CF59" transform="translate(785,586)"/>
<path d="M0 0 C2.39531135 3.1198191 4.60117791 6.33073142 6.75 9.625 C7.38421875 10.58664062 8.0184375 11.54828125 8.671875 12.5390625 C9.11015625 13.35117187 9.5484375 14.16328125 10 15 C9.67 15.66 9.34 16.32 9 17 C5 12.25 5 12.25 5 10 C4.34 10 3.68 10 3 10 C0 3.375 0 3.375 0 0 Z " fill="#57E684" transform="translate(617,559)"/>
<path d="M0 0 C3.0390625 0.0234375 3.0390625 0.0234375 6.625 0.375 C7.81351563 0.48585938 9.00203125 0.59671875 10.2265625 0.7109375 C11.14179687 0.80632813 12.05703125 0.90171875 13 1 C13 1.66 13 2.32 13 3 C7.84828377 3.09038099 3.08086796 2.84681133 -2 2 C-1.34 1.34 -0.68 0.68 0 0 Z " fill="#56CF74" transform="translate(685,679)"/>
<path d="M0 0 C0.33 0.66 0.66 1.32 1 2 C1.99 2.33 2.98 2.66 4 3 C4.80975321 5.69917736 5.46236485 8.24978941 6 11 C6.309375 12.485 6.309375 12.485 6.625 14 C6.74875 14.66 6.8725 15.32 7 16 C3.26170422 11.70095985 0 5.75071925 0 0 Z " fill="#51D36D" transform="translate(1159,650)"/>
<path d="M0 0 C0 0.99 0 1.98 0 3 C-1.85625 3.680625 -1.85625 3.680625 -3.75 4.375 C-6.04427913 5.223237 -8.10804766 6.06002648 -10.25 7.25 C-12 8 -12 8 -16 7 C-10.72 4.69 -5.44 2.38 0 0 Z " fill="#3FBE5F" transform="translate(650,357)"/>
<path d="M0 0 C0.66 0 1.32 0 2 0 C1.33501617 4.38889325 -0.18757677 7.9811485 -2 12 C-2.33 12 -2.66 12 -3 12 C-2.88541307 10.56163249 -2.75790884 9.12429034 -2.625 7.6875 C-2.55539062 6.88699219 -2.48578125 6.08648438 -2.4140625 5.26171875 C-2 3 -2 3 0 0 Z " fill="#50DB74" transform="translate(988,548)"/>
<path d="M0 0 C3 1 3 1 4.1875 3.25 C4.99938294 5.99791147 5.16260121 8.15447889 5 11 C5.66 11 6.32 11 7 11 C6.34 12.32 5.68 13.64 5 15 C4.16260219 12.8765984 3.33019717 10.7512272 2.5 8.625 C1.80390625 6.84996094 1.80390625 6.84996094 1.09375 5.0390625 C0 2 0 2 0 0 Z " fill="#55D26B" transform="translate(1116,543)"/>
<path d="M0 0 C0.99 0.33 1.98 0.66 3 1 C-3.07439825 7.86214442 -3.07439825 7.86214442 -6.9375 8.4375 C-7.9584375 8.2209375 -7.9584375 8.2209375 -9 8 C-8.67 7.34 -8.34 6.68 -8 6 C-7.01 6 -6.02 6 -5 6 C-5 5.34 -5 4.68 -5 4 C-4.01 4 -3.02 4 -2 4 C-2 3.34 -2 2.68 -2 2 C-1.34 2 -0.68 2 0 2 C0 1.34 0 0.68 0 0 Z " fill="#5BE07C" transform="translate(1001,671)"/>
<path d="M0 0 C0.66 0 1.32 0 2 0 C4.45946923 5.25432063 5.90301833 10.30860098 7 16 C4.28659072 12.79677758 3.06935064 9.73725031 1.8125 5.75 C1.46832031 4.67234375 1.12414063 3.5946875 0.76953125 2.484375 C0.51558594 1.66453125 0.26164062 0.8446875 0 0 Z " fill="#032508" transform="translate(1195,574)"/>
<path d="M0 0 C1.54046762 4.10791365 0.75996191 7.78566579 0 12 C-0.99 12.495 -0.99 12.495 -2 13 C-3.19876651 7.55106131 -2.91360308 4.77830905 0 0 Z " fill="#2EBD5E" transform="translate(999,517)"/>
<path d="M0 0 C6.75 0.875 6.75 0.875 9 2 C9 2.66 9 3.32 9 4 C9.99 4.33 10.98 4.66 12 5 C7.25081338 4.53439347 3.89217595 3.83067342 0 1 C0 0.67 0 0.34 0 0 Z " fill="#54CB73" transform="translate(884,679)"/>
<path d="M0 0 C1.32 0.33 2.64 0.66 4 1 C2.21118264 2.00508801 0.41885304 3.00392736 -1.375 4 C-2.37273438 4.556875 -3.37046875 5.11375 -4.3984375 5.6875 C-7 7 -7 7 -9 7 C-8.67 6.01 -8.34 5.02 -8 4 C-5.10441559 2.5522078 -3.25811062 2 0 2 C0 1.34 0 0.68 0 0 Z " fill="#58E079" transform="translate(790,659)"/>
<path d="M0 0 C0.33 0.66 0.66 1.32 1 2 C0.00390625 4.6015625 0.00390625 4.6015625 -1.4375 7.625 C-1.91058594 8.62789063 -2.38367187 9.63078125 -2.87109375 10.6640625 C-3.24363281 11.43492187 -3.61617187 12.20578125 -4 13 C-5.14271055 9.57186835 -4.82699932 8.69088901 -3.6875 5.375 C-3.42324219 4.57835937 -3.15898438 3.78171875 -2.88671875 2.9609375 C-2 1 -2 1 0 0 Z " fill="#51E578" transform="translate(1083,474)"/>
<path d="M0 0 C1.60367894 4.00919734 0.31933425 7.04199726 -1 11 C-1.33 11.66 -1.66 12.32 -2 13 C-2.66 13 -3.32 13 -4 13 C-3.52343588 11.20763933 -3.04366502 9.41613103 -2.5625 7.625 C-2.29566406 6.62726562 -2.02882813 5.62953125 -1.75390625 4.6015625 C-1 2 -1 2 0 0 Z " fill="#30B35D" transform="translate(995,527)"/>
<path d="M0 0 C0.33 0 0.66 0 1 0 C1 2.97 1 5.94 1 9 C0.34 9 -0.32 9 -1 9 C-1 10.32 -1 11.64 -1 13 C-1.66 13 -2.32 13 -3 13 C-2.68991116 11.39536551 -2.37683713 9.79130769 -2.0625 8.1875 C-1.88847656 7.29417969 -1.71445312 6.40085937 -1.53515625 5.48046875 C-1 3 -1 3 0 0 Z " fill="#44B25D" transform="translate(556,450)"/>
<path d="M0 0 C0.33 0.99 0.66 1.98 1 3 C-1.57404971 6.86107457 -3.61020259 6.94319692 -8 8 C-5.33333333 5.33333333 -2.66666667 2.66666667 0 0 Z " fill="#38BE5E" transform="translate(601,387)"/>
<path d="M0 0 C1.38087404 3.83576122 0.94284862 7.08355188 0 11 C-2.05078125 12.2109375 -2.05078125 12.2109375 -4 13 C-3.52140759 11.39566191 -3.04210442 9.79153584 -2.5625 8.1875 C-2.29566406 7.29417969 -2.02882813 6.40085937 -1.75390625 5.48046875 C-1.19612127 3.64526945 -0.60655425 1.81966274 0 0 Z " fill="#3BCE68" transform="translate(1004,504)"/>
<path d="M0 0 C1 2 1 2 0.25 4.875 C-0.88533421 7.71333554 -2.04083424 9.68462228 -4 12 C-5 9 -5 9 -4.2578125 6.9921875 C-3.88398437 6.29351562 -3.51015625 5.59484375 -3.125 4.875 C-2.75632812 4.17117188 -2.38765625 3.46734375 -2.0078125 2.7421875 C-1 1 -1 1 0 0 Z " fill="#3BBE64" transform="translate(1061,358)"/>
<path d="M0 0 C5.73842251 -0.20413361 10.60539047 -0.27141454 16 2 C15.34 2.66 14.68 3.32 14 4 C10.875 3.625 10.875 3.625 8 3 C8 2.34 8 1.68 8 1 C5.36 1 2.72 1 0 1 C0 0.67 0 0.34 0 0 Z " fill="#54E682" transform="translate(1083,348)"/>
<path d="M0 0 C1.2684375 0.433125 1.2684375 0.433125 2.5625 0.875 C6.02361041 2.00772704 9.49372557 3.01824316 13 4 C12.34 4.66 11.68 5.32 11 6 C9.53775201 5.57576756 8.08026588 5.13509755 6.625 4.6875 C5.81289063 4.44386719 5.00078125 4.20023438 4.1640625 3.94921875 C2 3 2 3 0 0 Z " fill="#5FD67F" transform="translate(960,678)"/>
<path d="M0 0 C1 3 1 3 0.00390625 5.48046875 C-0.47175781 6.37378906 -0.94742187 7.26710938 -1.4375 8.1875 C-1.91058594 9.08855469 -2.38367187 9.98960937 -2.87109375 10.91796875 C-3.24363281 11.60503906 -3.61617187 12.29210937 -4 13 C-5.125 9.25 -5.125 9.25 -4 7 C-3.34 7 -2.68 7 -2 7 C-1.855625 6.21625 -1.71125 5.4325 -1.5625 4.625 C-1 2 -1 2 0 0 Z " fill="#54E075" transform="translate(1049,560)"/>
<path d="M0 0 C0.99 0.33 1.98 0.66 3 1 C4.54613006 5.09724467 5.29227216 7.81857651 4 12 C3.3291288 10.3767313 2.66342971 8.75132422 2 7.125 C1.62875 6.22007812 1.2575 5.31515625 0.875 4.3828125 C0 2 0 2 0 0 Z " fill="#53E97B" transform="translate(1104,512)"/>
<path d="M0 0 C0.6875 1.625 0.6875 1.625 1 4 C-0.4375 7.25 -0.4375 7.25 -2 10 C-2.66 10 -3.32 10 -4 10 C-3.52449439 8.51965236 -3.04448784 7.04074979 -2.5625 5.5625 C-2.29566406 4.73878906 -2.02882813 3.91507812 -1.75390625 3.06640625 C-1 1 -1 1 0 0 Z " fill="#4EDC70" transform="translate(1052,380)"/>
<path d="M0 0 C3.94139078 1.66751148 6.7892812 4.22710649 10 7 C9.34 7.66 8.68 8.32 8 9 C7.34 8.01 6.68 7.02 6 6 C5.154375 5.505 4.30875 5.01 3.4375 4.5 C1 3 1 3 0 0 Z " fill="#5FDB78" transform="translate(807,379)"/>
<path d="M0 0 C-1.26418246 0.69965443 -2.53665402 1.38434763 -3.8125 2.0625 C-4.52019531 2.44535156 -5.22789062 2.82820312 -5.95703125 3.22265625 C-8 4 -8 4 -11 3 C-4.01886792 -1.33962264 -4.01886792 -1.33962264 0 0 Z " fill="#5DDD7E" transform="translate(919,679)"/>
<path d="M0 0 C0 0.66 0 1.32 0 2 C-2.90600261 3.25664978 -4.79604584 4 -8 4 C-7.67 3.01 -7.34 2.02 -7 1 C-4.53721199 -0.231394 -2.7204945 -0.07159196 0 0 Z " fill="#48D769" transform="translate(742,615)"/>
<path d="M0 0 C5.94 1.485 5.94 1.485 12 3 C12 3.33 12 3.66 12 4 C6.140625 4.390625 6.140625 4.390625 4 4 C2.68 2.68 1.36 1.36 0 0 Z " fill="#5BD776" transform="translate(680,615)"/>
<path d="M0 0 C0.6875 1.6875 0.6875 1.6875 1 4 C-0.3125 6.75 -0.3125 6.75 -2 9 C-2.66 9 -3.32 9 -4 9 C-3.67 7.02 -3.34 5.04 -3 3 C-2.34 3 -1.68 3 -1 3 C-0.67 2.01 -0.34 1.02 0 0 Z " fill="#50E174" transform="translate(1027,449)"/>
<path d="M0 0 C-0.66 1.65 -1.32 3.3 -2 5 C-3.98 5 -5.96 5 -8 5 C-3.16129032 0 -3.16129032 0 0 0 Z " fill="#37BC59" transform="translate(630,367)"/>
<path d="M0 0 C-0.33 0.66 -0.66 1.32 -1 2 C-2.32 2 -3.64 2 -5 2 C-5 1.34 -5 0.68 -5 0 C-6.65 0 -8.3 0 -10 0 C-10 -0.33 -10 -0.66 -10 -1 C-5.94568308 -2.15837626 -3.78187881 -1.83691257 0 0 Z " fill="#53EE7B" transform="translate(686,678)"/>
<path d="M0 0 C0.66 0.33 1.32 0.66 2 1 C1.01 1.33 0.02 1.66 -1 2 C-1.6837045 3.32467746 -2.34964186 4.65863633 -3 6 C-3.99 6.66 -4.98 7.32 -6 8 C-4.73058503 4.08597051 -3.48832306 2.20927127 0 0 Z " fill="#001701" transform="translate(1023,637)"/>
<path d="M0 0 C1.98 0 3.96 0 6 0 C6.66 1.65 7.32 3.3 8 5 C5.04590299 3.62845496 2.55991624 2.01136276 0 0 Z " fill="#4BE470" transform="translate(1148,636)"/>
<path d="M0 0 C7.75 1.625 7.75 1.625 10 5 C8.51800098 4.55090939 7.03944764 4.09043436 5.5625 3.625 C4.73878906 3.36976563 3.91507813 3.11453125 3.06640625 2.8515625 C1 2 1 2 0 0 Z " fill="#5FDA7F" transform="translate(633,662)"/>
<path d="M0 0 C0.66 0.33 1.32 0.66 2 1 C-1.465 3.97 -1.465 3.97 -5 7 C-5 5.68 -5 4.36 -5 3 C-2.625 1.1875 -2.625 1.1875 0 0 Z " fill="#55EA7B" transform="translate(829,630)"/>
<path d="M0 0 C1 2 1 2 0.3125 4.5625 C-1 7 -1 7 -3.125 7.8125 C-3.74375 7.874375 -4.3625 7.93625 -5 8 C-4.67 7.01 -4.34 6.02 -4 5 C-3.34 5 -2.68 5 -2 5 C-1.34 3.35 -0.68 1.7 0 0 Z " fill="#48D665" transform="translate(869,428)"/>
<path d="M0 0 C0.66 0 1.32 0 2 0 C1.60196439 2.88575819 1.20990931 3.82189513 -1.0625 5.75 C-1.701875 6.1625 -2.34125 6.575 -3 7 C-3.66 6.67 -4.32 6.34 -5 6 C-3.38405168 3.95880212 -1.7143618 1.95927063 0 0 Z " fill="#45DE70" transform="translate(615,376)"/>
</svg>
